<svg xmlns="http://www.w3.org/2000/svg" viewBox="0 0 192 192">
  <defs>
    <linearGradient id="bgGrad" x1="0%" y1="0%" x2="100%" y2="100%">
      <stop offset="0%" style="stop-color:#6366f1"/>
      <stop offset="100%" style="stop-color:#8b5cf6"/>
    </linearGradient>
    <linearGradient id="buildingGrad" x1="0%" y1="0%" x2="0%" y2="100%">
      <stop offset="0%" style="stop-color:#ffffff"/>
      <stop offset="100%" style="stop-color:#f1f5f9"/>
    </linearGradient>
  </defs>
  <!-- Background -->
  <rect width="192" height="192" rx="38" fill="url(#bgGrad)"/>
  
  <!-- School Building -->
  <rect x="30" y="68" width="132" height="90" rx="6" fill="url(#buildingGrad)"/>
  
  <!-- Roof/Top -->
  <rect x="22" y="52" width="148" height="20" rx="4" fill="#ffffff"/>
  
  <!-- Columns -->
  <rect x="38" y="76" width="10" height="75" rx="2" fill="#e2e8f0"/>
  <rect x="68" y="76" width="10" height="75" rx="2" fill="#e2e8f0"/>
  <rect x="98" y="76" width="10" height="75" rx="2" fill="#e2e8f0"/>
  <rect x="128" y="76" width="10" height="75" rx="2" fill="#e2e8f0"/>
  <rect x="145" y="76" width="10" height="75" rx="2" fill="#e2e8f0"/>
  
  <!-- Door -->
  <rect x="81" y="113" width="30" height="45" rx="3" fill="#6366f1"/>
  <rect x="86" y="120" width="8" height="12" rx="2" fill="#8b5cf6"/>
  <rect x="98" y="120" width="8" height="12" rx="2" fill="#8b5cf6"/>
  <circle cx="107" cy="138" r="2" fill="#fbbf24"/>
  
  <!-- Windows -->
  <rect x="45" y="90" width="15" height="20" rx="3" fill="#93c5fd"/>
  <rect x="132" y="90" width="15" height="20" rx="3" fill="#93c5fd"/>
  
  <!-- Steps -->
  <rect x="22" y="158" width="148" height="8" rx="2" fill="#e2e8f0"/>
  <rect x="15" y="166" width="162" height="6" rx="2" fill="#cbd5e1"/>
  
  <!-- Graduation Cap on top -->
  <rect x="85" y="40" width="22" height="3" rx="1.5" fill="#fbbf24"/>
  <rect x="80" y="28" width="32" height="16" rx="3" fill="#fbbf24"/>
  <path d="M80 35 L96 40 L112 35 L96 30 Z" fill="#f59e0b"/>
  <circle cx="108" cy="40" r="2.5" fill="#fbbf24"/>
  <line x1="108" y1="40" x2="118" y2="50" stroke="#fbbf24" stroke-width="1.5"/>
  <circle cx="118" cy="50" r="2" fill="#fbbf24"/>
</svg>
