<svg xmlns="http://www.w3.org/2000/svg" viewBox="0 0 512 512">
  <defs>
    <linearGradient id="bgGrad" x1="0%" y1="0%" x2="100%" y2="100%">
      <stop offset="0%" style="stop-color:#6366f1"/>
      <stop offset="100%" style="stop-color:#8b5cf6"/>
    </linearGradient>
    <linearGradient id="buildingGrad" x1="0%" y1="0%" x2="0%" y2="100%">
      <stop offset="0%" style="stop-color:#ffffff"/>
      <stop offset="100%" style="stop-color:#f1f5f9"/>
    </linearGradient>
  </defs>
  <!-- Background -->
  <rect width="512" height="512" rx="100" fill="url(#bgGrad)"/>
  
  <!-- School Building -->
  <rect x="80" y="180" width="352" height="240" rx="16" fill="url(#buildingGrad)"/>
  
  <!-- Roof/Top -->
  <rect x="60" y="140" width="392" height="50" rx="10" fill="#ffffff"/>
  
  <!-- Columns -->
  <rect x="100" y="200" width="24" height="200" rx="4" fill="#e2e8f0"/>
  <rect x="180" y="200" width="24" height="200" rx="4" fill="#e2e8f0"/>
  <rect x="260" y="200" width="24" height="200" rx="4" fill="#e2e8f0"/>
  <rect x="340" y="200" width="24" height="200" rx="4" fill="#e2e8f0"/>
  <rect x="388" y="200" width="24" height="200" rx="4" fill="#e2e8f0"/>
  
  <!-- Door -->
  <rect x="216" y="300" width="80" height="120" rx="8" fill="#6366f1"/>
  <rect x="232" y="316" width="20" height="30" rx="4" fill="#8b5cf6"/>
  <rect x="260" y="316" width="20" height="30" rx="4" fill="#8b5cf6"/>
  <rect x="232" y="356" width="20" height="30" rx="4" fill="#8b5cf6"/>
  <rect x="260" y="356" width="20" height="30" rx="4" fill="#8b5cf6"/>
  <circle cx="288" cy="365" r="5" fill="#fbbf24"/>
  
  <!-- Windows -->
  <rect x="120" y="240" width="40" height="50" rx="6" fill="#93c5fd"/>
  <rect x="200" y="240" width="40" height="50" rx="6" fill="#93c5fd"/>
  <rect x="352" y="240" width="40" height="50" rx="6" fill="#93c5fd"/>
  
  <!-- Steps -->
  <rect x="60" y="420" width="392" height="20" rx="4" fill="#e2e8f0"/>
  <rect x="40" y="440" width="432" height="16" rx="4" fill="#cbd5e1"/>
  
  <!-- Graduation Cap on top -->
  <rect x="226" y="100" width="60" height="8" rx="4" fill="#fbbf24"/>
  <rect x="216" y="70" width="80" height="40" rx="8" fill="#fbbf24"/>
  <path d="M216 85 L256 95 L296 85 L256 75 Z" fill="#f59e0b"/>
  <circle cx="286" cy="95" r="6" fill="#fbbf24"/>
  <line x1="286" y1="95" x2="310" y2="130" stroke="#fbbf24" stroke-width="4"/>
  <circle cx="310" cy="130" r="5" fill="#fbbf24"/>
</svg>
